<svg width="25" height="25" viewBox="0 0 25 25" fill="none" xmlns="http://www.w3.org/2000/svg">
<path d="M8.5 2.5V5.5" stroke="#898989" stroke-width="1.5" stroke-miterlimit="10" stroke-linecap="round" stroke-linejoin="round"/>
<path d="M16.5 2.5V5.5" stroke="#898989" stroke-width="1.5" stroke-miterlimit="10" stroke-linecap="round" stroke-linejoin="round"/>
<path d="M4 9.58984H21" stroke="#898989" stroke-width="1.5" stroke-miterlimit="10" stroke-linecap="round" stroke-linejoin="round"/>
<path d="M19.711 16.2703L16.171 19.8103C16.031 19.9503 15.901 20.2103 15.871 20.4003L15.681 21.7503C15.611 22.2403 15.951 22.5803 16.441 22.5103L17.791 22.3203C17.981 22.2903 18.251 22.1603 18.381 22.0203L21.921 18.4803C22.531 17.8703 22.821 17.1603 21.921 16.2603C21.031 15.3703 20.321 15.6603 19.711 16.2703Z" stroke="#898989" stroke-width="1.5" stroke-miterlimit="10" stroke-linecap="round" stroke-linejoin="round"/>
<path d="M19.2031 16.7812C19.5031 17.8613 20.3431 18.7013 21.4231 19.0013" stroke="#898989" stroke-width="1.5" stroke-miterlimit="10" stroke-linecap="round" stroke-linejoin="round"/>
<path d="M12.5 22.5H8.5C5 22.5 3.5 20.5 3.5 17.5V9C3.5 6 5 4 8.5 4H16.5C20 4 21.5 6 21.5 9V12.5" stroke="#898989" stroke-width="1.5" stroke-miterlimit="10" stroke-linecap="round" stroke-linejoin="round"/>
<path d="M12.4945 14.1992H12.5035" stroke="#898989" stroke-width="2" stroke-linecap="round" stroke-linejoin="round"/>
<path d="M8.79138 14.1992H8.80036" stroke="#898989" stroke-width="2" stroke-linecap="round" stroke-linejoin="round"/>
<path d="M8.79138 17.1992H8.80036" stroke="#898989" stroke-width="2" stroke-linecap="round" stroke-linejoin="round"/>
</svg>
