<svg width="16" height="16" viewBox="0 0 16 16" fill="none" xmlns="http://www.w3.org/2000/svg">
<path d="M11.7493 7.16576C11.4626 7.16576 11.2359 6.93242 11.2359 6.65242C11.2359 6.40575 10.9893 5.89242 10.5759 5.44576C10.1693 5.01242 9.7226 4.75909 9.34927 4.75909C9.0626 4.75909 8.83594 4.52576 8.83594 4.24576C8.83594 3.96576 9.06927 3.73242 9.34927 3.73242C10.0159 3.73242 10.7159 4.09242 11.3293 4.73909C11.9026 5.34576 12.2693 6.09909 12.2693 6.64576C12.2693 6.93242 12.0359 7.16576 11.7493 7.16576Z" fill="#373737"/>
<path d="M14.1571 7.16732C13.8704 7.16732 13.6437 6.93398 13.6437 6.65398C13.6437 4.28732 11.7171 2.36732 9.35708 2.36732C9.07042 2.36732 8.84375 2.13398 8.84375 1.85398C8.84375 1.57398 9.07042 1.33398 9.35042 1.33398C12.2838 1.33398 14.6704 3.72065 14.6704 6.65398C14.6704 6.93398 14.4371 7.16732 14.1571 7.16732Z" fill="#373737"/>
<path d="M7.36927 9.96732L6.13594 11.2007C5.87594 11.4607 5.4626 11.4607 5.19594 11.2073C5.1226 11.134 5.04927 11.0673 4.97594 10.994C4.28927 10.3007 3.66927 9.57399 3.11594 8.81398C2.56927 8.05398 2.12927 7.29398 1.80927 6.54065C1.49594 5.78065 1.33594 5.05398 1.33594 4.36065C1.33594 3.90732 1.41594 3.47398 1.57594 3.07398C1.73594 2.66732 1.98927 2.29398 2.3426 1.96065C2.76927 1.54065 3.23594 1.33398 3.72927 1.33398C3.91594 1.33398 4.1026 1.37398 4.26927 1.45398C4.4426 1.53398 4.59594 1.65398 4.71594 1.82732L6.2626 4.00732C6.3826 4.17398 6.46927 4.32732 6.52927 4.47398C6.58927 4.61398 6.6226 4.75398 6.6226 4.88065C6.6226 5.04065 6.57594 5.20065 6.4826 5.35398C6.39594 5.50732 6.26927 5.66732 6.10927 5.82732L5.6026 6.35398C5.52927 6.42732 5.49594 6.51398 5.49594 6.62065C5.49594 6.67398 5.5026 6.72065 5.51594 6.77398C5.53594 6.82732 5.55594 6.86732 5.56927 6.90732C5.68927 7.12732 5.89594 7.41398 6.18927 7.76065C6.48927 8.10732 6.80927 8.46065 7.15594 8.81398C7.2226 8.88065 7.29594 8.94732 7.3626 9.01398C7.62927 9.27398 7.63594 9.70065 7.36927 9.96732Z" fill="#373737"/>
<path d="M14.6451 12.2194C14.6451 12.406 14.6118 12.5994 14.5451 12.786C14.5251 12.8394 14.5051 12.8927 14.4784 12.946C14.3651 13.186 14.2184 13.4127 14.0251 13.626C13.6984 13.986 13.3384 14.246 12.9318 14.4127C12.9251 14.4127 12.9184 14.4194 12.9118 14.4194C12.5184 14.5794 12.0918 14.666 11.6318 14.666C10.9518 14.666 10.2251 14.506 9.45844 14.1794C8.69177 13.8527 7.9251 13.4127 7.1651 12.8594C6.9051 12.666 6.6451 12.4727 6.39844 12.266L8.57844 10.086C8.7651 10.226 8.93177 10.3327 9.07177 10.406C9.1051 10.4194 9.1451 10.4394 9.19177 10.4594C9.2451 10.4794 9.29844 10.486 9.35844 10.486C9.47177 10.486 9.55844 10.446 9.63177 10.3727L10.1384 9.87271C10.3051 9.70604 10.4651 9.57938 10.6184 9.49938C10.7718 9.40604 10.9251 9.35938 11.0918 9.35938C11.2184 9.35938 11.3518 9.38604 11.4984 9.44604C11.6451 9.50604 11.7984 9.59271 11.9651 9.70604L14.1718 11.2727C14.3451 11.3927 14.4651 11.5327 14.5384 11.6994C14.6051 11.866 14.6451 12.0327 14.6451 12.2194Z" fill="#373737"/>
</svg>
