<svg width="21" height="22" viewBox="0 0 21 22" fill="none" xmlns="http://www.w3.org/2000/svg">
<path d="M14.875 0.578125H6.14583C2.35417 0.578125 0.09375 2.83854 0.09375 6.63021V15.349C0.09375 19.151 2.35417 21.4115 6.14583 21.4115H14.8646C18.6562 21.4115 20.9167 19.151 20.9167 15.3594V6.63021C20.9271 2.83854 18.6667 0.578125 14.875 0.578125ZM7.5 16.099C7.5 16.3906 7.27083 16.6198 6.97917 16.6198H4.07292C3.78125 16.6198 3.55208 16.3906 3.55208 16.099V11.2865C3.55208 10.6302 4.08333 10.099 4.73958 10.099H6.97917C7.27083 10.099 7.5 10.3281 7.5 10.6198V16.099ZM12.4792 16.099C12.4792 16.3906 12.25 16.6198 11.9583 16.6198H9.05208C8.76042 16.6198 8.53125 16.3906 8.53125 16.099V6.55729C8.53125 5.90104 9.0625 5.36979 9.71875 5.36979H11.3021C11.9583 5.36979 12.4896 5.90104 12.4896 6.55729V16.099H12.4792ZM17.4688 16.099C17.4688 16.3906 17.2396 16.6198 16.9479 16.6198H14.0417C13.75 16.6198 13.5208 16.3906 13.5208 16.099V12.401C13.5208 12.1094 13.75 11.8802 14.0417 11.8802H16.2812C16.9375 11.8802 17.4688 12.4115 17.4688 13.0677V16.099Z" fill="#EE7A32"/>
</svg>
