<svg width="24" height="24" viewBox="0 0 24 24" fill="none" xmlns="http://www.w3.org/2000/svg">
<path d="M3.35571 2H12.2557C12.9957 2 13.6057 2.61001 13.6057 3.35001V4.82999C13.6057 5.36999 13.2657 6.04 12.9357 6.38L10.0358 8.94C9.63577 9.28 9.36572 9.94999 9.36572 10.49V13.39C9.36572 13.79 9.09574 14.33 8.75574 14.54L7.81573 15.15C6.93573 15.69 5.72571 15.08 5.72571 14V10.43C5.72571 9.95999 5.45573 9.35001 5.18573 9.01001L2.62573 6.31C2.28573 5.97 2.01575 5.36999 2.01575 4.95999V3.41C2.00575 2.61 2.61571 2 3.35571 2Z" stroke="#292D32" stroke-width="1.5" stroke-miterlimit="10" stroke-linecap="round" stroke-linejoin="round"/>
<path d="M2 12.0002V15.0002C2 20.0002 4 22.0002 9 22.0002H15C20 22.0002 22 20.0002 22 15.0002V9.00024C22 5.88024 21.22 3.92024 19.41 2.90024C18.9 2.61024 17.88 2.39023 16.95 2.24023" stroke="#292D32" stroke-width="1.5" stroke-linecap="round" stroke-linejoin="round"/>
<path d="M13 13H18" stroke="#292D32" stroke-width="1.5" stroke-linecap="round" stroke-linejoin="round"/>
<path d="M11 17H18" stroke="#292D32" stroke-width="1.5" stroke-linecap="round" stroke-linejoin="round"/>
</svg>
