<svg width="26" height="26" viewBox="0 0 26 26" fill="none" xmlns="http://www.w3.org/2000/svg">
<path d="M21.9791 9.30143C20.8854 4.48893 16.6875 2.32227 13 2.32227C13 2.32227 13 2.32227 12.9896 2.32227C9.31248 2.32227 5.10414 4.47852 4.01039 9.29102C2.79164 14.666 6.08331 19.2181 9.06248 22.0827C10.1666 23.1452 11.5833 23.6764 13 23.6764C14.4166 23.6764 15.8333 23.1452 16.9271 22.0827C19.9062 19.2181 23.1979 14.6764 21.9791 9.30143ZM13 14.5202C11.1875 14.5202 9.71873 13.0514 9.71873 11.2389C9.71873 9.42643 11.1875 7.95768 13 7.95768C14.8125 7.95768 16.2812 9.42643 16.2812 11.2389C16.2812 13.0514 14.8125 14.5202 13 14.5202Z" fill="#EE7A32"/>
</svg>
