<svg width="186" height="98" viewBox="0 0 186 98" fill="none" xmlns="http://www.w3.org/2000/svg">
<path d="M22.485 1.53125C35.252 1.53125 42.0524 7.94459 42.0524 18.2636C42.0524 26.5411 36.8754 32.3774 27.6181 33.8643L42.4472 53.7922H27.7497L14.1271 34.2415H12.3283V53.7922H0V1.53125H22.463H22.485ZM12.3283 12.8489V23.7449H22.3314C26.7626 23.7449 29.4827 21.9918 29.4827 18.2636C29.4827 14.5355 26.6749 12.8489 22.3314 12.8489H12.3283Z" fill="#050605"/>
<path d="M77.192 35.4655C77.192 36.6639 77.1262 38.306 76.9727 39.0827H52.4257C53.3909 43.0772 56.1988 44.9413 60.1693 44.9413C62.8675 44.9413 65.785 43.8317 68.0664 41.7235L75.5249 48.736C71.7518 52.553 66.2676 54.7499 59.577 54.7499C48.2138 54.7499 40.4922 47.0939 40.4922 35.6652C40.4922 24.2366 48.0603 16.1367 59.0505 16.1367C70.0407 16.1367 77.1262 23.9703 77.1701 35.4433M52.4476 31.6708H65.6315C64.7101 28.0092 62.4507 26.0785 59.0944 26.0785C55.5187 26.0785 53.347 28.0536 52.4476 31.6708Z" fill="#050605"/>
<path d="M106.698 17.1751V21.1252C104.527 18.2403 101.192 16.1543 96.3223 16.1543C86.6264 16.1543 79.4531 24.6758 79.4531 35.4165C79.4531 46.1572 86.6044 54.7453 96.2785 54.7453C101.192 54.7453 104.505 52.6815 106.676 49.8188L108.563 53.7689V51.4832C108.563 44.3597 112.292 38.1017 117.864 34.6176V17.1529H106.676L106.698 17.1751ZM99.0644 43.8715C94.4577 43.8715 91.3427 40.2543 91.3427 35.4609C91.3427 30.6675 94.4358 27.0503 99.0644 27.0503C103.693 27.0503 106.808 30.601 106.808 35.4609C106.808 40.3208 103.605 43.8715 99.0644 43.8715Z" fill="#050605"/>
<path d="M120.209 0.0449219V33.3766C122.644 32.267 125.343 31.6678 128.194 31.6678H128.896C129.862 31.6678 130.827 31.7344 131.748 31.8675V0.0449219H120.188H120.209Z" fill="#050605"/>
<path d="M148.903 76.0509C148.706 65.0883 139.931 56.1452 129.095 55.8567C124.137 55.7235 119.574 57.3879 115.976 60.2506V51.5071C115.976 44.6943 121.439 39.1465 128.195 39.1465H128.897C135.632 39.1465 141.116 44.6943 141.116 51.5071V53.4822C141.84 54.1479 142.761 54.4808 143.66 54.4808C144.516 54.4808 145.371 54.1923 146.051 53.6153L146.205 53.4822V51.5071C146.205 41.8538 138.44 33.998 128.897 33.998H128.195C118.653 33.998 110.887 41.8538 110.887 51.5071V66.2201C109.176 69.2381 108.211 72.7222 108.211 76.4504C108.211 87.5905 117.117 96.7778 128.107 97.0219C139.69 97.2882 149.123 87.7459 148.925 76.0287M137.584 84.0843C137.584 84.8388 136.97 85.4601 136.224 85.4601H132.517C131.771 85.4601 131.157 84.8388 131.157 84.0843V79.2021C131.157 78.4476 130.542 77.8263 129.796 77.8263H127.405C126.66 77.8263 126.045 78.4476 126.045 79.2021V84.0843C126.045 84.8388 125.431 85.4601 124.685 85.4601H120.978C120.232 85.4601 119.618 84.8388 119.618 84.0843V75.8734C119.618 75.4961 119.771 75.1189 120.057 74.8526L127.691 67.7291C128.217 67.2409 129.029 67.2409 129.555 67.7291L137.189 74.8526C137.474 75.1189 137.628 75.474 137.628 75.8734V84.0621L137.584 84.0843Z" fill="#EE7A32"/>
<path d="M105.931 72.0324V96.0658H94.3706V76.16C94.3706 71.8326 92.2208 69.4138 88.6232 69.4138C85.4424 69.4138 82.7661 71.6107 82.7661 76.3597V96.0658H71.2056V76.16C71.2056 71.8326 69.0558 69.4138 65.4801 69.4138C62.2774 69.4138 59.6231 71.6107 59.6231 76.3597V96.0658H48.0625V59.4498H59.1405V64.0434C61.4219 60.2043 65.0853 58.4512 69.9113 58.4512C74.7373 58.4512 78.7298 60.6481 80.9454 64.576C83.3804 60.3596 87.4386 58.4512 92.4182 58.4512C100.688 58.4512 105.931 63.5996 105.931 72.0324Z" fill="#050605"/>
<path d="M176.28 59.006L175.205 70.6565C173.647 70.1239 171.476 69.6801 169.413 69.6801C165.311 69.6801 162.811 71.7439 162.811 76.2931V96.088H151.25V59.472H162.328V63.6884C164.434 60.1377 167.79 58.4512 172.221 58.4512C173.91 58.4512 175.402 58.7397 176.28 59.006Z" fill="#050605"/>
<path d="M185.997 88.9907C185.997 93.3181 182.334 97.0462 178.144 97.0462C173.954 97.0462 170.203 93.3181 170.203 88.9907C170.203 84.6634 173.888 81.0684 178.144 81.0684C182.4 81.0684 185.997 84.73 185.997 88.9907Z" fill="#050605"/>
</svg>
