<svg width="180" height="42" viewBox="0 0 180 42" fill="none" xmlns="http://www.w3.org/2000/svg">
<path d="M14.867 6.47487C23.3195 6.47487 27.8065 10.7008 27.8065 17.4686C27.8065 22.9178 24.3939 26.7465 18.2638 27.7315L28.0751 40.8382H18.3586L9.35311 27.9698H8.15236V40.8382H0V6.45898H14.867V6.47487ZM8.15236 13.9099V21.0749H14.7722C17.695 21.0749 19.5119 19.9152 19.5119 17.4686C19.5119 15.022 17.6634 13.9099 14.7722 13.9099H8.15236Z" fill="#050605"/>
<path d="M51.08 28.7774C51.08 29.5558 51.0326 30.6361 50.9378 31.1604H34.6963C35.3282 33.7817 37.1925 35.0209 39.831 35.0209C41.6163 35.0209 43.5438 34.2901 45.0605 32.9079L49.9899 37.531C47.4936 40.0412 43.8598 41.4869 39.436 41.4869C31.9156 41.4869 26.8125 36.4507 26.8125 28.9362C26.8125 21.4217 31.8209 16.0996 39.0885 16.0996C46.3561 16.0996 51.0484 21.2629 51.08 28.7932M34.7121 26.3149H43.4332C42.8171 23.916 41.3319 22.6291 39.1042 22.6291C36.7344 22.6291 35.2966 23.9319 34.7121 26.3149Z" fill="#050605"/>
<path d="M77.9833 40.838H70.5893V38.2325C69.1516 40.1231 66.9555 41.4735 63.7009 41.4735C57.3022 41.4735 52.5625 35.8813 52.5625 28.7481C52.5625 21.6148 57.3022 16.0703 63.7167 16.0703C66.9397 16.0703 69.1358 17.4525 70.5735 19.343V16.7376H77.9675V40.8221L77.9833 40.838ZM60.4304 28.7798C60.4304 31.9254 62.4843 34.3085 65.5336 34.3085C68.5828 34.3085 70.6683 31.9731 70.6683 28.7798C70.6683 25.5866 68.5512 23.2512 65.5336 23.2512C62.5159 23.2512 60.4304 25.6342 60.4304 28.7798Z" fill="#050605"/>
<path d="M87.178 5.48633H79.5312V40.8505H87.178V5.48633Z" fill="#050605"/>
<path d="M155.445 27.6825C155.319 20.4858 149.505 14.5917 142.348 14.4011C139.062 14.3216 136.044 15.4019 133.674 17.2925V11.5414C133.674 7.06133 137.292 3.40734 141.748 3.40734H142.222C146.677 3.40734 150.295 7.06133 150.295 11.5414V12.8442C150.769 13.2731 151.369 13.4955 151.985 13.4955C152.554 13.4955 153.107 13.3049 153.581 12.9236L153.676 12.8442V11.5414C153.676 5.18668 148.541 0.0234375 142.222 0.0234375H141.748C135.428 0.0234375 130.293 5.18668 130.293 11.5414V21.2165C129.156 23.2024 128.508 25.506 128.524 27.9526C128.524 35.2765 134.417 41.3294 141.684 41.4882C149.347 41.663 155.603 35.3877 155.445 27.6825ZM147.941 32.9887C147.941 33.4971 147.53 33.8943 147.04 33.8943H144.591C144.086 33.8943 143.691 33.4812 143.691 32.9887V29.7796C143.691 29.2712 143.28 28.874 142.79 28.874H141.21C140.705 28.874 140.31 29.2871 140.31 29.7796V32.9887C140.31 33.4971 139.899 33.8943 139.409 33.8943H136.96C136.455 33.8943 136.06 33.4812 136.06 32.9887V27.6031C136.06 27.3489 136.171 27.1106 136.344 26.9358L141.4 22.2492C141.748 21.9315 142.285 21.9315 142.632 22.2492L147.688 26.9358C147.878 27.1106 147.972 27.3489 147.972 27.6031V32.9887H147.941Z" fill="#EE7A32"/>
<path d="M127.008 25.0269V40.8343H119.361V27.7435C119.361 24.8998 117.94 23.2952 115.554 23.2952C113.453 23.2952 111.667 24.7409 111.667 27.8547V40.8184H104.02V27.7276C104.02 24.8839 102.599 23.2793 100.229 23.2793C98.1116 23.2793 96.3421 24.725 96.3421 27.8389V40.8026H88.6953V16.718H96.0261V19.7365C97.5428 17.2105 99.9601 16.0508 103.152 16.0508C106.343 16.0508 108.981 17.4965 110.451 20.0702C112.062 17.29 114.748 16.0508 118.05 16.0508C123.517 16.0508 126.992 19.4347 126.992 24.9951" fill="#050605"/>
<path d="M173.566 16.4647L172.855 24.1222C171.828 23.7727 170.39 23.4868 169.015 23.4868C166.298 23.4868 164.639 24.8371 164.639 27.8398V40.8511H156.992V16.7666H164.323V19.5468C165.713 17.2114 167.941 16.1152 170.864 16.1152C171.986 16.1152 172.965 16.3059 173.55 16.4806" fill="#050605"/>
<path d="M179.998 36.1797C179.998 39.0234 177.581 41.4859 174.8 41.4859C172.019 41.4859 169.555 39.0234 169.555 36.1797C169.555 33.3359 172.004 30.9688 174.8 30.9688C177.596 30.9688 179.998 33.3677 179.998 36.1797Z" fill="#050605"/>
</svg>
