<svg width="25" height="24" viewBox="0 0 25 24" fill="none" xmlns="http://www.w3.org/2000/svg">
<path d="M8.12906 3.56969C8.30845 3.47184 8.49906 3.62237 8.49906 3.8267V17.3825C8.49906 17.6058 8.34665 17.7946 8.14926 17.8988C8.14249 17.9024 8.13576 17.906 8.12906 17.9097L5.77906 19.2497C4.13906 20.1897 2.78906 19.4097 2.78906 17.5097V7.77969C2.78906 7.14969 3.23906 6.36969 3.79906 6.04969L8.12906 3.56969Z" fill="#EE7A32"/>
<path d="M15.2219 6.1029C15.3922 6.18725 15.5 6.36089 15.5 6.55096V19.7041C15.5 20.0726 15.115 20.3145 14.783 20.1546L10.533 18.107C10.36 18.0236 10.25 17.8485 10.25 17.6565V4.4462C10.25 4.07534 10.6396 3.83355 10.9719 3.99814L15.2219 6.1029Z" fill="#EE7A32"/>
<path d="M22.5 6.49006V16.2201C22.5 16.8501 22.05 17.6301 21.49 17.9501L17.9986 19.951C17.6653 20.1421 17.25 19.9014 17.25 19.5172V6.33038C17.25 6.15087 17.3462 5.98513 17.5021 5.89615L19.51 4.75006C21.15 3.81006 22.5 4.59006 22.5 6.49006Z" fill="#EE7A32"/>
</svg>
