<svg width="9" height="10" viewBox="0 0 9 10" fill="none" xmlns="http://www.w3.org/2000/svg">
<path d="M4.33855 0.515625C6.7276 0.515625 8.66225 2.45028 8.66225 4.83464C8.66225 7.22369 6.7276 9.15835 4.33855 9.15835C1.95419 9.15835 0.0195312 7.22369 0.0195312 4.83464C0.0195312 2.45028 1.95419 0.515625 4.33855 0.515625ZM4.33855 2.21606C4.66646 2.21606 4.93347 2.48307 4.93347 2.81098C4.93347 3.13889 4.66646 3.4059 4.33855 3.4059C4.01533 3.4059 3.74832 3.13889 3.74832 2.81098C3.74832 2.48307 4.01064 2.21606 4.33855 2.21606ZM3.79984 3.85092H4.88194V6.59598H5.31291V7.45322H3.36888V6.59598H3.79984V4.30062H3.36888V3.85092H3.79984ZM4.33855 0.932537C2.18373 0.932537 0.436443 2.67982 0.436443 4.83464C0.436443 6.99415 2.18373 8.74144 4.33855 8.74144C6.49806 8.74144 8.24534 6.99415 8.24534 4.83464C8.24534 2.67982 6.49806 0.932537 4.33855 0.932537Z" fill="#EE7A32"/>
</svg>
