<svg width="22" height="21" viewBox="0 0 22 21" fill="none" xmlns="http://www.w3.org/2000/svg">
<path d="M21.804 19.2175L18.7008 16.6526V9.81664C18.7008 6.35543 16.3598 3.4234 13.1641 2.48926C13.1804 2.38666 13.1967 2.28947 13.1967 2.18147C13.1967 0.977343 12.2168 0 10.9973 0C9.78322 0 8.79782 0.977343 8.79782 2.18147C8.79782 2.28947 8.8196 2.38666 8.83593 2.48926C5.64019 3.4234 3.29918 6.35003 3.29918 9.81664V16.6526L0.195991 19.2175C0.0653304 19.3201 0 19.4767 0 19.6387V20.184C0 20.481 0.244989 20.724 0.54442 20.724H21.4501C21.755 20.724 22 20.481 22 20.184V19.6387C22 19.4767 21.9238 19.3201 21.804 19.2175ZM9.90844 2.26787C9.90844 2.24087 9.89755 2.20847 9.89755 2.18147C9.89755 1.57671 10.393 1.08534 10.9973 1.08534C11.607 1.08534 12.097 1.57671 12.097 2.18147C12.097 2.20847 12.0916 2.24087 12.0861 2.26787C11.7322 2.21927 11.3675 2.18147 10.9973 2.18147C10.6216 2.18147 10.2623 2.21387 9.90844 2.26787Z" fill="#EE7A32"/>
</svg>
