<svg width="20" height="20" viewBox="0 0 20 20" fill="none" xmlns="http://www.w3.org/2000/svg">
<path d="M18.0604 5.79248C17.5271 3.98415 16.0187 2.47582 14.2104 1.94248C12.8354 1.54248 11.8854 1.57582 11.2271 2.06748C10.4354 2.65915 10.3438 3.72582 10.3438 4.48415V6.55915C10.3438 8.60915 11.2771 9.65082 13.1104 9.65082H15.5021C16.2521 9.65082 17.3271 9.55915 17.9188 8.76748C18.4271 8.11748 18.4688 7.16748 18.0604 5.79248Z" fill="#714E95"/>
<path d="M15.7614 11.133C15.5448 10.883 15.2281 10.7413 14.9031 10.7413H11.9198C10.4531 10.7413 9.26142 9.54964 9.26142 8.08297V5.09964C9.26142 4.77464 9.11976 4.45797 8.86976 4.2413C8.62809 4.02464 8.29476 3.92464 7.97809 3.9663C6.01976 4.2163 4.21976 5.2913 3.04476 6.90797C1.86142 8.53297 1.42809 10.5163 1.80309 12.4996C2.34476 15.3663 4.63642 17.658 7.51142 18.1996C7.96976 18.2913 8.42809 18.333 8.88642 18.333C10.3948 18.333 11.8531 17.8663 13.0948 16.958C14.7114 15.783 15.7864 13.983 16.0364 12.0246C16.0781 11.6996 15.9781 11.3746 15.7614 11.133Z" fill="#714E95"/>
</svg>
