<svg width="20" height="20" viewBox="0 0 20 20" fill="none" xmlns="http://www.w3.org/2000/svg">
<path d="M18.0604 5.7915C17.5271 3.98317 16.0187 2.47484 14.2104 1.94151C12.8354 1.54151 11.8854 1.57484 11.2271 2.06651C10.4354 2.65817 10.3438 3.72484 10.3438 4.48317V6.55817C10.3438 8.60817 11.2771 9.64984 13.1104 9.64984H15.5021C16.2521 9.64984 17.3271 9.55817 17.9188 8.76651C18.4271 8.11651 18.4688 7.16651 18.0604 5.7915Z" fill="#050605"/>
<path d="M15.7614 11.133C15.5448 10.883 15.2281 10.7413 14.9031 10.7413H11.9198C10.4531 10.7413 9.26142 9.54964 9.26142 8.08297V5.09964C9.26142 4.77464 9.11976 4.45797 8.86976 4.2413C8.62809 4.02464 8.29476 3.92464 7.97809 3.9663C6.01976 4.2163 4.21976 5.2913 3.04476 6.90797C1.86142 8.53297 1.42809 10.5163 1.80309 12.4996C2.34476 15.3663 4.63642 17.658 7.51142 18.1996C7.96976 18.2913 8.42809 18.333 8.88642 18.333C10.3948 18.333 11.8531 17.8663 13.0948 16.958C14.7114 15.783 15.7864 13.983 16.0364 12.0246C16.0781 11.6996 15.9781 11.3746 15.7614 11.133Z" fill="#050605"/>
</svg>
