<svg width="24" height="24" viewBox="0 0 24 24" fill="none" xmlns="http://www.w3.org/2000/svg">
<path d="M10.7487 4.63937L6.31875 2.44937C3.92875 1.27937 1.96875 2.46937 1.96875 5.08937V19.9294C1.96875 21.0694 2.91875 21.9994 4.07875 21.9994H11.4987C12.0487 21.9994 12.4987 21.5494 12.4987 20.9994V7.40937C12.4987 6.35937 11.7087 5.10937 10.7487 4.63937ZM8.96875 13.7494H5.49875C5.08875 13.7494 4.74875 13.4094 4.74875 12.9994C4.74875 12.5894 5.08875 12.2494 5.49875 12.2494H8.96875C9.37875 12.2494 9.71875 12.5894 9.71875 12.9994C9.71875 13.4094 9.38875 13.7494 8.96875 13.7494ZM8.96875 9.74937H5.49875C5.08875 9.74937 4.74875 9.40937 4.74875 8.99937C4.74875 8.58937 5.08875 8.24937 5.49875 8.24937H8.96875C9.37875 8.24937 9.71875 8.58937 9.71875 8.99937C9.71875 9.40937 9.38875 9.74937 8.96875 9.74937Z" fill="#373737"/>
<path d="M22 18.0391V19.4991C22 20.8791 20.88 21.9991 19.5 21.9991H14.97C14.43 21.9991 14 21.5691 14 21.0291V18.8691C15.07 18.9991 16.2 18.6891 17.01 18.0391C17.69 18.5891 18.56 18.9191 19.51 18.9191C20.44 18.9191 21.31 18.5891 22 18.0391Z" fill="#373737"/>
<path d="M22 15.0486V15.0586C21.92 16.3686 20.85 17.4186 19.51 17.4186C18.12 17.4186 17.01 16.2886 17.01 14.9186C17.01 16.4486 15.6 17.6786 14 17.3686V11.9986C14 11.3586 14.59 10.8786 15.22 11.0186L17.01 11.4186L17.49 11.5286L19.53 11.9886C20.02 12.0886 20.47 12.2586 20.86 12.5086C20.86 12.5186 20.87 12.5186 20.87 12.5186C20.97 12.5886 21.07 12.6686 21.16 12.7586C21.62 13.2186 21.92 13.8886 21.99 14.8686C21.99 14.9286 22 14.9886 22 15.0486Z" fill="#373737"/>
</svg>
