<svg width="26" height="26" viewBox="0 0 26 26" fill="none" xmlns="http://www.w3.org/2000/svg">
<path d="M21.9791 9.30241C20.8854 4.48991 16.6875 2.32324 13 2.32324C13 2.32324 13 2.32324 12.9896 2.32324C9.31248 2.32324 5.10414 4.47949 4.01039 9.29199C2.79164 14.667 6.08331 19.2191 9.06248 22.0837C10.1666 23.1462 11.5833 23.6774 13 23.6774C14.4166 23.6774 15.8333 23.1462 16.9271 22.0837C19.9062 19.2191 23.1979 14.6774 21.9791 9.30241ZM13 14.5212C11.1875 14.5212 9.71873 13.0524 9.71873 11.2399C9.71873 9.42741 11.1875 7.95866 13 7.95866C14.8125 7.95866 16.2812 9.42741 16.2812 11.2399C16.2812 13.0524 14.8125 14.5212 13 14.5212Z" fill="#050605"/>
</svg>
