<svg width="186" height="98" viewBox="0 0 186 98" fill="none" xmlns="http://www.w3.org/2000/svg">
<path d="M22.485 1.53125C35.252 1.53125 42.0524 7.94459 42.0524 18.2636C42.0524 26.5411 36.8754 32.3774 27.6181 33.8643L42.4472 53.7922H27.7497L14.1271 34.2415H12.3283V53.7922H0V1.53125H22.463H22.485ZM12.3283 12.8489V23.7449H22.3314C26.7626 23.7449 29.4827 21.9918 29.4827 18.2636C29.4827 14.5355 26.6749 12.8489 22.3314 12.8489H12.3283Z" fill="#030403"/>
<path d="M77.192 35.4636C77.192 36.6619 77.1262 38.3041 76.9727 39.0808H52.4257C53.3909 43.0752 56.1988 44.9393 60.1693 44.9393C62.8675 44.9393 65.785 43.8298 68.0664 41.7216L75.5249 48.7341C71.7518 52.551 66.2676 54.748 59.577 54.748C48.2138 54.748 40.4922 47.0919 40.4922 35.6633C40.4922 24.2347 48.0603 16.1348 59.0505 16.1348C70.0407 16.1348 77.1262 23.9684 77.1701 35.4414M52.4476 31.6688H65.6315C64.7101 28.0072 62.4507 26.0766 59.0944 26.0766C55.5187 26.0766 53.347 28.0516 52.4476 31.6688Z" fill="#030403"/>
<path d="M106.698 17.1741V21.1242C104.527 18.2393 101.192 16.1533 96.3223 16.1533C86.6264 16.1533 79.4531 24.6749 79.4531 35.4155C79.4531 46.1562 86.6044 54.7443 96.2785 54.7443C101.192 54.7443 104.505 52.6805 106.676 49.8178L108.563 53.7679V51.4822C108.563 44.3587 112.292 38.1007 117.864 34.6166V17.1519H106.676L106.698 17.1741ZM99.0644 43.8705C94.4577 43.8705 91.3427 40.2533 91.3427 35.4599C91.3427 30.6666 94.4358 27.0493 99.0644 27.0493C103.693 27.0493 106.808 30.6 106.808 35.4599C106.808 40.3199 103.605 43.8705 99.0644 43.8705Z" fill="#030403"/>
<path d="M120.209 0.0439453V33.3756C122.644 32.266 125.343 31.6668 128.194 31.6668H128.896C129.862 31.6668 130.827 31.7334 131.748 31.8666V0.0439453H120.188H120.209Z" fill="#030403"/>
<path d="M148.903 76.05C148.706 65.0874 139.931 56.1442 129.095 55.8557C124.137 55.7225 119.574 57.3869 115.976 60.2496V51.5062C115.976 44.6934 121.439 39.1455 128.195 39.1455H128.897C135.632 39.1455 141.116 44.6934 141.116 51.5062V53.4812C141.84 54.1469 142.761 54.4798 143.66 54.4798C144.516 54.4798 145.371 54.1913 146.051 53.6144L146.205 53.4812V51.5062C146.205 41.8529 138.44 33.9971 128.897 33.9971H128.195C118.653 33.9971 110.887 41.8529 110.887 51.5062V66.2191C109.176 69.2372 108.211 72.7212 108.211 76.4494C108.211 87.5895 117.117 96.7768 128.107 97.0209C139.69 97.2872 149.123 87.7449 148.925 76.0278M137.584 84.0833C137.584 84.8378 136.97 85.4592 136.224 85.4592H132.517C131.771 85.4592 131.157 84.8378 131.157 84.0833V79.2011C131.157 78.4466 130.542 77.8253 129.796 77.8253H127.405C126.66 77.8253 126.045 78.4466 126.045 79.2011V84.0833C126.045 84.8378 125.431 85.4592 124.685 85.4592H120.978C120.232 85.4592 119.618 84.8378 119.618 84.0833V75.8724C119.618 75.4952 119.771 75.1179 120.057 74.8516L127.691 67.7281C128.217 67.2399 129.029 67.2399 129.555 67.7281L137.189 74.8516C137.474 75.1179 137.628 75.473 137.628 75.8724V84.0611L137.584 84.0833Z" fill="#050605"/>
<path d="M105.931 72.0324V96.0658H94.3706V76.16C94.3706 71.8326 92.2208 69.4138 88.6232 69.4138C85.4424 69.4138 82.7661 71.6107 82.7661 76.3597V96.0658H71.2056V76.16C71.2056 71.8326 69.0558 69.4138 65.4801 69.4138C62.2774 69.4138 59.6231 71.6107 59.6231 76.3597V96.0658H48.0625V59.4498H59.1405V64.0434C61.4219 60.2043 65.0853 58.4512 69.9113 58.4512C74.7373 58.4512 78.7298 60.6481 80.9454 64.576C83.3804 60.3596 87.4386 58.4512 92.4182 58.4512C100.688 58.4512 105.931 63.5996 105.931 72.0324Z" fill="#030403"/>
<path d="M176.28 59.006L175.205 70.6565C173.647 70.1239 171.476 69.6801 169.413 69.6801C165.311 69.6801 162.811 71.7439 162.811 76.2931V96.088H151.25V59.472H162.328V63.6884C164.434 60.1377 167.79 58.4512 172.221 58.4512C173.91 58.4512 175.402 58.7397 176.28 59.006Z" fill="#030403"/>
<path d="M185.997 88.9888C185.997 93.3161 182.334 97.0443 178.144 97.0443C173.954 97.0443 170.203 93.3161 170.203 88.9888C170.203 84.6614 173.888 81.0664 178.144 81.0664C182.4 81.0664 185.997 84.728 185.997 88.9888Z" fill="#030403"/>
</svg>
