<svg width="180" height="42" viewBox="0 0 180 42" fill="none" xmlns="http://www.w3.org/2000/svg">
<path d="M14.867 6.47487C23.3195 6.47487 27.8065 10.7008 27.8065 17.4686C27.8065 22.9178 24.3939 26.7465 18.2638 27.7315L28.0751 40.8382H18.3586L9.35311 27.9698H8.15236V40.8382H0V6.45898H14.867V6.47487ZM8.15236 13.9099V21.0749H14.7722C17.695 21.0749 19.5119 19.9152 19.5119 17.4686C19.5119 15.022 17.6634 13.9099 14.7722 13.9099H8.15236Z" fill="#050605"/>
<path d="M51.08 28.7774C51.08 29.5558 51.0326 30.6361 50.9378 31.1604H34.6963C35.3282 33.7817 37.1925 35.0209 39.831 35.0209C41.6163 35.0209 43.5438 34.2901 45.0605 32.9079L49.9899 37.531C47.4936 40.0412 43.8598 41.4869 39.436 41.4869C31.9156 41.4869 26.8125 36.4507 26.8125 28.9362C26.8125 21.4217 31.8209 16.0996 39.0885 16.0996C46.3561 16.0996 51.0484 21.2629 51.08 28.7932M34.7121 26.3149H43.4332C42.8171 23.916 41.3319 22.6291 39.1042 22.6291C36.7344 22.6291 35.2966 23.9319 34.7121 26.3149Z" fill="#050605"/>
<path d="M77.9833 40.836H70.5893V38.2306C69.1516 40.1211 66.9555 41.4715 63.7009 41.4715C57.3022 41.4715 52.5625 35.8793 52.5625 28.7461C52.5625 21.6129 57.3022 16.0684 63.7167 16.0684C66.9397 16.0684 69.1358 17.4505 70.5735 19.3411V16.7356H77.9675V40.8201L77.9833 40.836ZM60.4304 28.7779C60.4304 31.9235 62.4843 34.3065 65.5336 34.3065C68.5828 34.3065 70.6683 31.9711 70.6683 28.7779C70.6683 25.5846 68.5512 23.2492 65.5336 23.2492C62.5159 23.2492 60.4304 25.6323 60.4304 28.7779Z" fill="#050605"/>
<path d="M87.178 5.48535H79.5312V40.8496H87.178V5.48535Z" fill="#050605"/>
<path d="M155.445 27.6815C155.319 20.4848 149.505 14.5907 142.348 14.4001C139.062 14.3207 136.044 15.401 133.674 17.2915V11.5405C133.674 7.06035 137.292 3.40637 141.748 3.40637H142.222C146.677 3.40637 150.295 7.06035 150.295 11.5405V12.8432C150.769 13.2721 151.369 13.4945 151.985 13.4945C152.554 13.4945 153.107 13.3039 153.581 12.9226L153.676 12.8432V11.5405C153.676 5.1857 148.541 0.0224609 142.222 0.0224609H141.748C135.428 0.0224609 130.293 5.1857 130.293 11.5405V21.2156C129.156 23.2014 128.508 25.505 128.524 27.9516C128.524 35.2755 134.417 41.3284 141.684 41.4873C149.347 41.662 155.603 35.3867 155.445 27.6815ZM147.941 32.9878C147.941 33.4961 147.53 33.8933 147.04 33.8933H144.591C144.086 33.8933 143.691 33.4803 143.691 32.9878V29.7786C143.691 29.2702 143.28 28.8731 142.79 28.8731H141.21C140.705 28.8731 140.31 29.2861 140.31 29.7786V32.9878C140.31 33.4961 139.899 33.8933 139.409 33.8933H136.96C136.455 33.8933 136.06 33.4803 136.06 32.9878V27.6021C136.06 27.3479 136.171 27.1096 136.344 26.9349L141.4 22.2482C141.748 21.9305 142.285 21.9305 142.632 22.2482L147.688 26.9349C147.878 27.1096 147.972 27.3479 147.972 27.6021V32.9878H147.941Z" fill="#050605"/>
<path d="M127.008 25.0269V40.8343H119.361V27.7435C119.361 24.8998 117.94 23.2952 115.554 23.2952C113.453 23.2952 111.667 24.7409 111.667 27.8547V40.8184H104.02V27.7276C104.02 24.8839 102.599 23.2793 100.229 23.2793C98.1116 23.2793 96.3421 24.725 96.3421 27.8389V40.8026H88.6953V16.718H96.0261V19.7365C97.5428 17.2105 99.9601 16.0508 103.152 16.0508C106.343 16.0508 108.981 17.4965 110.451 20.0702C112.062 17.29 114.748 16.0508 118.05 16.0508C123.517 16.0508 126.992 19.4347 126.992 24.9951" fill="#050605"/>
<path d="M173.566 16.4647L172.855 24.1222C171.828 23.7727 170.39 23.4868 169.015 23.4868C166.298 23.4868 164.639 24.8371 164.639 27.8398V40.8511H156.992V16.7666H164.323V19.5468C165.713 17.2114 167.941 16.1152 170.864 16.1152C171.986 16.1152 172.965 16.3059 173.55 16.4806" fill="#050605"/>
<path d="M179.998 36.1787C179.998 39.0224 177.581 41.4849 174.8 41.4849C172.019 41.4849 169.555 39.0224 169.555 36.1787C169.555 33.3349 172.004 30.9678 174.8 30.9678C177.596 30.9678 179.998 33.3667 179.998 36.1787Z" fill="#050605"/>
</svg>
