<svg width="23" height="24" viewBox="0 0 23 24" fill="none" xmlns="http://www.w3.org/2000/svg">
<path d="M13.7628 21.9098C13.7083 21.8288 13.5995 21.7802 13.5341 21.7856L8.47647 21.818C8.47647 21.818 8.29682 21.8666 8.24782 21.9422C8.19882 22.0232 8.18793 22.1203 8.22604 22.2013C8.70513 23.2921 9.79941 23.9994 10.9971 23.9994C12.2221 23.9994 13.3109 23.2813 13.7846 22.1689C13.8227 22.0771 13.8118 21.98 13.7628 21.9098Z" fill="#373737"/>
<path d="M21.804 19.2175L18.7008 16.6526V9.81664C18.7008 6.35543 16.3598 3.4234 13.1641 2.48926C13.1804 2.38666 13.1967 2.28947 13.1967 2.18147C13.1967 0.977343 12.2168 0 10.9973 0C9.78322 0 8.79782 0.977343 8.79782 2.18147C8.79782 2.28947 8.8196 2.38666 8.83593 2.48926C5.64019 3.4234 3.29918 6.35003 3.29918 9.81664V16.6526L0.195991 19.2175C0.0653304 19.3201 0 19.4767 0 19.6387V20.184C0 20.481 0.244989 20.724 0.54442 20.724H21.4501C21.755 20.724 22 20.481 22 20.184V19.6387C22 19.4767 21.9238 19.3201 21.804 19.2175ZM9.90844 2.26787C9.90844 2.24087 9.89755 2.20847 9.89755 2.18147C9.89755 1.57671 10.393 1.08534 10.9973 1.08534C11.607 1.08534 12.097 1.57671 12.097 2.18147C12.097 2.20847 12.0916 2.24087 12.0861 2.26787C11.7322 2.21927 11.3675 2.18147 10.9973 2.18147C10.6216 2.18147 10.2623 2.21387 9.90844 2.26787Z" fill="#373737"/>
<path d="M18.0537 0.218359C15.9374 0.218359 14.1891 1.93378 14.1891 4.05224C14.1891 6.1707 15.9374 7.88613 18.0537 7.88613C20.1701 7.88613 21.9184 6.1707 21.9184 4.05224C21.9184 1.93378 20.1701 0.218359 18.0537 0.218359Z" fill="white" stroke="#373737" stroke-width="0.2"/>
<path d="M18.6898 1.80822V6.07422H17.8798V2.94822L16.8748 3.35622V2.54022L18.6898 1.80822Z" fill="#050605"/>
</svg>
