<svg width="24" height="24" viewBox="0 0 24 24" fill="none" xmlns="http://www.w3.org/2000/svg">
<path d="M16.19 1.99902H7.81C4.17 1.99902 2 4.16902 2 7.80902V16.179C2 19.829 4.17 21.999 7.81 21.999H16.18C19.82 21.999 21.99 19.829 21.99 16.189V7.80902C22 4.16902 19.83 1.99902 16.19 1.99902ZM9.11 16.899C9.11 17.179 8.89 17.399 8.61 17.399H5.82C5.54 17.399 5.32 17.179 5.32 16.899V12.279C5.32 11.649 5.83 11.139 6.46 11.139H8.61C8.89 11.139 9.11 11.359 9.11 11.639V16.899ZM13.89 16.899C13.89 17.179 13.67 17.399 13.39 17.399H10.6C10.32 17.399 10.1 17.179 10.1 16.899V7.73902C10.1 7.10902 10.61 6.59902 11.24 6.59902H12.76C13.39 6.59902 13.9 7.10902 13.9 7.73902V16.899H13.89ZM18.68 16.899C18.68 17.179 18.46 17.399 18.18 17.399H15.39C15.11 17.399 14.89 17.179 14.89 16.899V13.349C14.89 13.069 15.11 12.849 15.39 12.849H17.54C18.17 12.849 18.68 13.359 18.68 13.989V16.899Z" fill="#373737"/>
</svg>
