<svg width="22" height="22" viewBox="0 0 22 22" fill="none" xmlns="http://www.w3.org/2000/svg">
<path d="M15.375 0.578125H6.64583C2.85417 0.578125 0.59375 2.83854 0.59375 6.63021V15.349C0.59375 19.151 2.85417 21.4115 6.64583 21.4115H15.3646C19.1562 21.4115 21.4167 19.151 21.4167 15.3594V6.63021C21.4271 2.83854 19.1667 0.578125 15.375 0.578125ZM8 16.099C8 16.3906 7.77083 16.6198 7.47917 16.6198H4.57292C4.28125 16.6198 4.05208 16.3906 4.05208 16.099V11.2865C4.05208 10.6302 4.58333 10.099 5.23958 10.099H7.47917C7.77083 10.099 8 10.3281 8 10.6198V16.099ZM12.9792 16.099C12.9792 16.3906 12.75 16.6198 12.4583 16.6198H9.55208C9.26042 16.6198 9.03125 16.3906 9.03125 16.099V6.55729C9.03125 5.90104 9.5625 5.36979 10.2187 5.36979H11.8021C12.4583 5.36979 12.9896 5.90104 12.9896 6.55729V16.099H12.9792ZM17.9688 16.099C17.9688 16.3906 17.7396 16.6198 17.4479 16.6198H14.5417C14.25 16.6198 14.0208 16.3906 14.0208 16.099V12.401C14.0208 12.1094 14.25 11.8802 14.5417 11.8802H16.7812C17.4375 11.8802 17.9688 12.4115 17.9688 13.0677V16.099Z" fill="#076152"/>
</svg>
