<svg width="20" height="20" viewBox="0 0 20 20" fill="none" xmlns="http://www.w3.org/2000/svg">
<g opacity="0.5">
<path fill-rule="evenodd" clip-rule="evenodd" d="M14.1369 14.9967C12.8164 16.1209 11.1048 16.7993 9.23464 16.7993C5.05568 16.7993 1.66797 13.4116 1.66797 9.23268C1.66797 5.05373 5.05568 1.66602 9.23464 1.66602C13.4136 1.66602 16.8013 5.05373 16.8013 9.23268C16.8013 11.0915 16.131 12.7938 15.019 14.111L18.651 17.743L17.7671 18.6269L14.1369 14.9967ZM15.5513 9.23268C15.5513 12.7213 12.7232 15.5493 9.23464 15.5493C5.74604 15.5493 2.91797 12.7213 2.91797 9.23268C2.91797 5.74408 5.74604 2.91602 9.23464 2.91602C12.7232 2.91602 15.5513 5.74408 15.5513 9.23268Z" fill="#050605"/>
</g>
</svg>
