<svg width="20" height="22" viewBox="0 0 20 22" fill="none" xmlns="http://www.w3.org/2000/svg">
<path d="M18.9791 7.30143C17.8854 2.48893 13.6875 0.322266 9.99998 0.322266C9.99998 0.322266 9.99998 0.322266 9.98956 0.322266C6.31248 0.322266 2.10414 2.47852 1.01039 7.29102C-0.208356 12.666 3.08331 17.2181 6.06248 20.0827C7.16664 21.1452 8.58331 21.6764 9.99998 21.6764C11.4166 21.6764 12.8333 21.1452 13.9271 20.0827C16.9062 17.2181 20.1979 12.6764 18.9791 7.30143ZM9.99998 12.5202C8.18748 12.5202 6.71873 11.0514 6.71873 9.23893C6.71873 7.42643 8.18748 5.95768 9.99998 5.95768C11.8125 5.95768 13.2812 7.42643 13.2812 9.23893C13.2812 11.0514 11.8125 12.5202 9.99998 12.5202Z" fill="#076152"/>
</svg>
