<svg width="25" height="24" viewBox="0 0 25 24" fill="none" xmlns="http://www.w3.org/2000/svg">
<path d="M7.83219 3.56969C8.01157 3.47184 8.20219 3.62237 8.20219 3.8267V17.3825C8.20219 17.6058 8.04977 17.7946 7.85239 17.8988C7.84562 17.9024 7.83888 17.906 7.83219 17.9097L5.48219 19.2497C3.84219 20.1897 2.49219 19.4097 2.49219 17.5097V7.77969C2.49219 7.14969 2.94219 6.36969 3.50219 6.04969L7.83219 3.56969Z" fill="#076152"/>
<path d="M14.925 6.1029C15.0954 6.18725 15.2031 6.36089 15.2031 6.55096V19.7041C15.2031 20.0726 14.8181 20.3145 14.4861 20.1546L10.2361 18.107C10.0631 18.0236 9.95312 17.8485 9.95312 17.6565V4.4462C9.95312 4.07534 10.3427 3.83355 10.675 3.99814L14.925 6.1029Z" fill="#076152"/>
<path d="M22.2031 6.49006V16.2201C22.2031 16.8501 21.7531 17.6301 21.1931 17.9501L17.7017 19.951C17.3684 20.1421 16.9531 19.9014 16.9531 19.5172V6.33038C16.9531 6.15087 17.0494 5.98513 17.2053 5.89615L19.2131 4.75006C20.8531 3.81006 22.2031 4.59006 22.2031 6.49006Z" fill="#076152"/>
</svg>
