<svg width="9" height="10" viewBox="0 0 9 10" fill="none" xmlns="http://www.w3.org/2000/svg">
<path d="M4.34246 0.515625C6.7315 0.515625 8.66616 2.45028 8.66616 4.83464C8.66616 7.22369 6.7315 9.15835 4.34246 9.15835C1.9581 9.15835 0.0234375 7.22369 0.0234375 4.83464C0.0234375 2.45028 1.9581 0.515625 4.34246 0.515625ZM4.34246 2.21606C4.67036 2.21606 4.93738 2.48307 4.93738 2.81098C4.93738 3.13889 4.67036 3.4059 4.34246 3.4059C4.01923 3.4059 3.75222 3.13889 3.75222 2.81098C3.75222 2.48307 4.01455 2.21606 4.34246 2.21606ZM3.80375 3.85092H4.88585V6.59598H5.31681V7.45322H3.37279V6.59598H3.80375V4.30062H3.37279V3.85092H3.80375ZM4.34246 0.932537C2.18763 0.932537 0.440349 2.67982 0.440349 4.83464C0.440349 6.99415 2.18763 8.74144 4.34246 8.74144C6.50197 8.74144 8.24925 6.99415 8.24925 4.83464C8.24925 2.67982 6.50197 0.932537 4.34246 0.932537Z" fill="#318C70"/>
</svg>
